<?xml version="1.0" standalone="no"?>
<!DOCTYPE svg PUBLIC "-//W3C//DTD SVG 20010904//EN"
 "http://www.w3.org/TR/2001/REC-SVG-20010904/DTD/svg10.dtd">
<svg version="1.0" xmlns="http://www.w3.org/2000/svg"
 width="700.000000pt" height="700.000000pt" viewBox="0 0 700.000000 700.000000"
 preserveAspectRatio="xMidYMid meet">
<metadata>
Created by potrace 1.11, written by Peter Selinger 2001-2013
</metadata>
<g transform="translate(0.000000,700.000000) scale(0.100000,-0.100000)"
fill="#000000" stroke="none">
<path d="M2807 4259 c-186 -30 -314 -214 -276 -399 58 -290 437 -369 604 -125
109 157 66 373 -94 474 -69 44 -156 63 -234 50z"/>
<path d="M4072 4254 c-111 -23 -196 -94 -244 -201 -33 -73 -30 -189 6 -265
105 -221 390 -266 555 -89 132 143 110 381 -47 496 -82 60 -171 80 -270 59z"/>
<path d="M3355 3263 c-257 -29 -468 -106 -611 -221 l-60 -49 -64 28 c-67 29
-100 36 -100 20 0 -5 -3 -16 -6 -25 -4 -10 -1 -16 7 -16 8 0 38 -11 67 -25
l54 -25 -29 -37 c-49 -65 -79 -116 -98 -171 l-19 -53 -51 1 c-83 3 -85 2 -85
-25 0 -20 5 -25 28 -26 88 -3 97 -5 94 -19 -8 -33 -1 -159 11 -216 l13 -61
-121 -40 c-100 -34 -119 -44 -117 -59 2 -11 7 -22 10 -26 4 -4 63 12 130 35
122 41 124 42 138 22 53 -74 129 -123 232 -150 81 -21 122 -25 258 -29 100 -4
116 -7 172 -35 179 -90 442 -85 608 11 24 14 61 20 150 24 131 5 150 7 209 19
22 4 49 9 60 11 51 9 146 68 190 116 l47 52 121 -41 c67 -23 125 -39 129 -35
3 4 8 16 10 26 3 16 -15 25 -120 60 -96 32 -121 44 -116 56 15 40 25 132 22
201 l-3 76 35 1 c92 1 90 0 90 30 l0 28 -70 -4 c-61 -4 -71 -2 -76 14 -21 66
-64 139 -136 230 -6 8 13 20 59 40 38 15 69 29 71 30 1 1 -2 13 -9 27 l-11 25
-81 -34 -80 -34 -51 39 c-145 112 -352 198 -544 226 -45 7 -316 13 -357 8z"/>
<path d="M5367 2673 c-15 -42 -26 -78 -23 -80 5 -5 45 91 52 127 11 52 -1 33
-29 -47z"/>
</g>
</svg>
